<?xml version="1.0" encoding="utf-8"?>
<!-- Generator: Adobe Illustrator 19.0.0, SVG Export Plug-In . SVG Version: 6.00 Build 0)  -->
<svg version="1.1" id="Layer_1" xmlns="http://www.w3.org/2000/svg" xmlns:xlink="http://www.w3.org/1999/xlink" x="0px" y="0px"
	 viewBox="0 0 500 500" style="enable-background:new 0 0 500 500;" xml:space="preserve">
<style type="text/css">
	.st0{fill:#095AA5;}
	.st1{fill:#FFFFFF;}
	.st2{fill:#FF690A;}
</style>
<g id="XMLID_1_">
	<rect id="XMLID_2_" x="67.5" y="150.1" class="st0" width="365" height="199.8"/>
	<path id="XMLID_3_" class="st1" d="M317.6,278.6c-11.3,29.6-40.1,50.9-73.7,50.9c-33.7,0-62.4-21.1-73.7-50.9l8.6,0
		c10.8,25.2,35.8,42.9,65,42.9c29.1,0,54.1-17.8,65-42.9H317.6L317.6,278.6z"/>
	<path id="XMLID_4_" class="st1" d="M317.6,278.6l-0.7-0.3c-11.2,29.3-39.7,50.4-73,50.4c-33.3,0-61.8-20.9-72.9-50.4l-0.7,0.3v0.8
		l8.6,0v-0.8l-0.7,0.3c10.9,25.5,36.2,43.4,65.7,43.4c29.4,0,54.7-18,65.7-43.4l-0.7-0.3v0.8h8.8V278.6l-0.7-0.3L317.6,278.6l0-0.8
		h-9.3l-0.2,0.5c-10.7,24.8-35.5,42.4-64.2,42.4c-28.8,0-53.6-17.5-64.3-42.4l-0.2-0.5l-10.3,0l0.4,1.1c11.4,30,40.4,51.4,74.4,51.4
		c33.9,0,63-21.5,74.4-51.4l0.4-1.1h-1.2L317.6,278.6L317.6,278.6z"/>
	<path id="XMLID_5_" class="st1" d="M309.5,222.2c-2.1-4.9-4.8-9.6-7.9-13.8c-1.3,0.5-2.8,0.8-4.3,0.8c-6.7,0-12.1-5.4-12.1-12.1
		c0-1.5,0.3-3,0.8-4.3c-11.7-8.5-26-13.5-41.5-13.5c-29.2,0-54.3,17.7-65,43h-8.5c11.3-29.6,40-50.9,73.6-50.9
		c17.4,0,33.5,5.7,46.5,15.3c1.9-1.2,4-1.8,6.4-1.8c6.8,0,12.2,5.5,12.2,12.2c0,2.3-0.6,4.4-1.7,6.3c4.2,5.7,7.7,12.2,10.3,19
		L309.5,222.2L309.5,222.2z"/>
	<path id="XMLID_6_" class="st1" d="M309.5,222.2l0.7-0.3c-2.1-5-4.9-9.7-8-14l-0.4-0.5l-0.6,0.2c-1.2,0.4-2.7,0.7-4,0.7
		c-3.1,0-6-1.3-8-3.3c-2.1-2.1-3.3-4.9-3.3-8c0-1.4,0.3-2.8,0.7-4l0.2-0.6l-0.5-0.4c-11.8-8.6-26.3-13.6-42-13.6
		c-29.5,0-54.9,17.9-65.8,43.4l0.7,0.3v-0.8h-8.5v0.8l0.7,0.3c11.2-29.3,39.6-50.4,72.8-50.4c17.2,0,33.2,5.7,46.1,15.1l0.4,0.3
		l0.5-0.3c1.8-1.1,3.8-1.7,6-1.7c3.2,0,6,1.3,8.1,3.3c2.1,2.1,3.3,4.9,3.3,8.1c0,2.2-0.6,4.1-1.6,5.9l-0.3,0.5l0.3,0.4
		c4.2,5.7,7.6,12.1,10.1,18.8l0.7-0.3l0-0.8l-8.6,0L309.5,222.2l0.7-0.3L309.5,222.2l0,0.8l9.8,0l-0.4-1.1
		c-2.6-6.8-6.1-13.4-10.4-19.1l-0.6,0.5l0.7,0.4c1.2-2,1.8-4.2,1.8-6.7c0-7.2-5.8-13-13-13c-2.5,0-4.8,0.7-6.8,1.9l0.4,0.7l0.5-0.6
		c-13.2-9.7-29.4-15.4-47-15.4c-33.9,0-63,21.5-74.3,51.4l-0.4,1.1h10.2l0.2-0.5c10.6-25,35.4-42.5,64.3-42.5
		c15.3,0,29.5,5,41.1,13.3l0.5-0.6l-0.7-0.3c-0.5,1.4-0.8,3-0.8,4.6c0,7.1,5.8,12.9,12.9,12.9c1.6,0,3.2-0.3,4.5-0.8l-0.3-0.8
		l-0.6,0.5c3.1,4.2,5.8,8.8,7.8,13.7l0.2,0.5l0.5,0L309.5,222.2L309.5,222.2z"/>
	<path id="XMLID_7_" class="st2" d="M290.7,196.8c0-3.7,3-6.7,6.7-6.7c3.7,0,6.7,3,6.7,6.7c0,3.7-3,6.7-6.7,6.7
		C293.7,203.5,290.7,200.5,290.7,196.8"/>
	<path id="XMLID_8_" class="st2" d="M290.7,196.8h0.1c0-1.8,0.7-3.4,1.9-4.6c1.2-1.2,2.8-1.9,4.6-1.9c1.8,0,3.4,0.7,4.6,1.9
		c1.2,1.2,1.9,2.8,1.9,4.6c0,1.8-0.7,3.4-1.9,4.6c-1.2,1.2-2.8,1.9-4.6,1.9c-1.8,0-3.4-0.7-4.6-1.9c-1.2-1.2-1.9-2.8-1.9-4.6h-0.3
		c0,3.8,3.1,6.8,6.8,6.8c3.8,0,6.8-3.1,6.8-6.8c0-3.8-3.1-6.8-6.8-6.8c-3.8,0-6.8,3.1-6.8,6.8H290.7L290.7,196.8z"/>
	<path id="XMLID_9_" class="st1" d="M98,237.5c1.7-1.7,3.7-3,5.8-3.8c2.2-0.9,4.4-1.3,6.7-1.3c2.2,0,4.4,0.4,6.6,1.3
		c2.2,0.8,4.2,2.1,5.9,3.8l2.4,2.4l-4.9,4.9l-2.5-2.4c-1-1-2.2-1.8-3.5-2.3c-1.3-0.5-2.6-0.8-4-0.8c-1.4,0-2.7,0.3-4,0.8
		c-1.3,0.5-2.5,1.3-3.5,2.3c-1,1-1.8,2.1-2.3,3.4c-0.5,1.3-0.8,2.6-0.8,4c0,1.4,0.3,2.7,0.8,4c0.5,1.3,1.3,2.5,2.3,3.5
		c2.1,2.1,4.6,3.1,7.5,3.1c1.4,0,2.8-0.3,4.1-0.8c1.3-0.5,2.5-1.3,3.4-2.3l2.5-2.4l4.9,4.9l-2.4,2.4c-1.7,1.7-3.7,3-5.9,3.9
		c-2.1,0.8-4.3,1.3-6.6,1.3c-2.2,0-4.5-0.4-6.7-1.3c-2.1-0.9-4.1-2.2-5.8-3.9c-1.7-1.7-3-3.7-3.8-5.8c-0.8-2.1-1.3-4.3-1.3-6.6
		c0-2.3,0.4-4.5,1.3-6.7C95,241.2,96.3,239.3,98,237.5"/>
	<path id="XMLID_10_" class="st1" d="M98,237.5l0.6,0.6c1.7-1.7,3.5-2.9,5.5-3.7l0,0c2.1-0.9,4.2-1.3,6.4-1.3c2.1,0,4.2,0.4,6.3,1.3
		l0,0l0,0c2.1,0.8,3.9,2,5.6,3.7l1.9,1.9l-3.7,3.8l-1.9-1.9l-0.6,0.6l0.6-0.6c-1.1-1.1-2.4-2-3.8-2.5c-1.4-0.6-2.8-0.8-4.3-0.8
		c-1.5,0-2.9,0.3-4.3,0.8c-1.4,0.6-2.7,1.4-3.8,2.5l0.6,0.6l-0.6-0.6c-1.1,1.1-2,2.3-2.5,3.7c-0.6,1.4-0.8,2.8-0.8,4.3
		c0,1.5,0.3,2.9,0.8,4.3c0.6,1.4,1.4,2.7,2.5,3.8c2.2,2.2,5,3.4,8.1,3.4c1.5,0,3-0.3,4.4-0.8c1.4-0.6,2.7-1.4,3.7-2.5l-0.6-0.5
		l0.6,0.6l1.9-1.9l3.7,3.8l-1.9,1.9c-1.6,1.6-3.5,2.9-5.6,3.7l0.3,0.7l-0.3-0.7c-2.1,0.8-4.1,1.2-6.3,1.2c-2.1,0-4.3-0.4-6.4-1.2
		l-0.3,0.7l0.3-0.7c-2-0.8-3.9-2.1-5.5-3.7c-1.7-1.7-2.9-3.5-3.7-5.5c-0.8-2.1-1.2-4.1-1.2-6.3c0-2.2,0.4-4.3,1.2-6.4
		c0.8-2,2-3.9,3.7-5.5L98,237.5l-0.6-0.6c-1.8,1.8-3.1,3.8-4,6.1c-0.9,2.2-1.3,4.6-1.3,6.9c0,2.3,0.4,4.6,1.3,6.9
		c0.9,2.3,2.2,4.3,4,6.1c1.8,1.8,3.8,3.2,6.1,4.1l0,0l0,0c2.3,0.9,4.6,1.3,6.9,1.3c2.3,0,4.6-0.4,6.9-1.3l0,0
		c2.3-0.9,4.3-2.3,6.1-4.1l3-3l-6-6.1l-3.1,3l0,0c-0.9,1-2,1.7-3.2,2.2c-1.2,0.5-2.5,0.7-3.8,0.7c-2.7,0-5-0.9-7-2.9
		c-1-1-1.7-2.1-2.2-3.3c-0.5-1.2-0.7-2.4-0.7-3.7c0-1.3,0.2-2.5,0.7-3.7c0.5-1.2,1.2-2.2,2.2-3.2l0,0l0,0c1-1,2.1-1.7,3.3-2.2
		c1.2-0.5,2.4-0.7,3.7-0.7c1.3,0,2.5,0.2,3.7,0.7c1.2,0.5,2.3,1.2,3.3,2.2l0,0l3.1,3l6-6.1l-3-3c-1.8-1.8-3.9-3.1-6.2-4l-0.3,0.7
		l0.3-0.7c-2.2-0.9-4.5-1.4-6.9-1.4c-2.3,0-4.7,0.5-7,1.4l0.3,0.7l-0.3-0.7c-2.2,0.9-4.3,2.2-6.1,4L98,237.5L98,237.5z"/>
	<path id="XMLID_11_" class="st1" d="M139.6,242.4c-2.1,2.1-3.1,4.6-3.1,7.5c0,1.6,0.4,3.2,1.1,4.6c0.6-0.6,1.6-1.6,2.8-2.8
		c1.3-1.3,2.7-2.7,4.1-4.1c1.5-1.5,2.8-2.8,4.1-4.1c1.4-1.3,2.4-2.3,3.1-3.1c-2-1-4.1-1.3-6.3-1
		C143.2,239.7,141.3,240.7,139.6,242.4 M157.1,255l4.9,4.9l-2.4,2.4c-1.7,1.7-3.6,2.9-5.7,3.8c-2.1,0.9-4.4,1.3-6.7,1.3
		c-2.3,0-4.6-0.4-6.7-1.3c-2.1-0.9-4-2.2-5.7-3.8c-1.7-1.7-3-3.7-3.8-5.8c-0.8-2.2-1.3-4.4-1.3-6.7c0-2.2,0.4-4.4,1.3-6.6
		c0.8-2.1,2.1-4.1,3.8-5.8c1.7-1.7,3.7-3,5.8-3.8c2.2-0.9,4.4-1.3,6.7-1.3c2.2,0,4.4,0.4,6.6,1.3c2.2,0.8,4.2,2.1,5.9,3.8l2.4,2.4
		l-19.5,19.5c2,1,4.1,1.3,6.3,1c2.2-0.4,4.2-1.4,5.9-3.1L157.1,255L157.1,255z"/>
	<path id="XMLID_14_" class="st1" d="M139.6,242.4l-0.6-0.6c-2.2,2.2-3.4,5-3.4,8.1c0,1.7,0.4,3.4,1.2,5l0.5,1l0.8-0.8
		c0.6-0.6,1.6-1.6,2.8-2.8c1.3-1.3,2.7-2.7,4.1-4.1c1.5-1.5,2.8-2.8,4.1-4.1l-0.6-0.6l0.6,0.6c1.4-1.3,2.4-2.3,3.1-3.1l0.8-0.8
		l-1-0.5c-1.6-0.8-3.3-1.2-5.1-1.2c-0.6,0-1.1,0-1.7,0.1c-2.4,0.3-4.5,1.4-6.2,3.2L139.6,242.4l0.6,0.6c1.6-1.6,3.3-2.5,5.3-2.7
		c0.5-0.1,1-0.1,1.5-0.1c1.5,0,3,0.3,4.4,1l0.4-0.7l-0.6-0.6c-0.7,0.7-1.8,1.7-3.1,3l0,0l0,0c-1.3,1.3-2.7,2.7-4.1,4.1
		c-1.4,1.4-2.8,2.8-4.1,4.1c-1.3,1.3-2.2,2.2-2.8,2.8l0.6,0.6l0.7-0.4c-0.7-1.4-1-2.8-1-4.3c0-2.7,0.9-5,2.9-6.9L139.6,242.4
		L139.6,242.4z M157.1,255l-0.6,0.6l4.4,4.4l-1.9,1.9c-1.6,1.6-3.4,2.8-5.5,3.7c-2,0.8-4.2,1.3-6.4,1.3c-2.2,0-4.4-0.4-6.4-1.3
		c-2-0.8-3.9-2.1-5.5-3.7c-1.6-1.7-2.9-3.5-3.7-5.5l0,0c-0.8-2.1-1.2-4.2-1.2-6.4c0-2.1,0.4-4.2,1.2-6.3c0.8-2,2-3.9,3.7-5.5
		c1.7-1.6,3.5-2.9,5.5-3.7l0,0c2.1-0.9,4.2-1.3,6.4-1.3c2.1,0,4.2,0.4,6.3,1.3l0,0l0,0c2.1,0.8,3.9,2,5.6,3.7l1.9,1.9l-19.7,19.7
		l1,0.5c1.6,0.8,3.3,1.2,5.1,1.2c0.6,0,1.1,0,1.7-0.1l0,0l0,0c2.4-0.4,4.5-1.5,6.3-3.3l2.4-2.4L157.1,255l-0.6,0.6L157.1,255
		l-0.6-0.6l-2.4,2.4c-1.6,1.6-3.4,2.5-5.4,2.8l0.1,0.8l-0.1-0.8c-0.5,0.1-1,0.1-1.4,0.1c-1.5,0-2.9-0.3-4.4-1l-0.4,0.7l0.6,0.6
		l20.1-20.1l-3-3c-1.8-1.8-3.9-3.1-6.2-4l-0.3,0.7l0.3-0.7c-2.2-0.9-4.5-1.4-6.9-1.4c-2.3,0-4.7,0.5-7,1.4l0.3,0.7l-0.3-0.7
		c-2.2,0.9-4.3,2.2-6.1,4c-1.8,1.8-3.1,3.8-4,6.1c-0.9,2.2-1.3,4.5-1.3,6.9c0,2.3,0.4,4.7,1.3,6.9l0,0l0,0c0.9,2.2,2.2,4.3,4,6.1
		c1.7,1.7,3.7,3.1,6,4c2.2,0.9,4.6,1.4,7,1.4c2.5,0,4.8-0.5,7-1.4c2.2-0.9,4.2-2.3,6-4l3-3l-6.1-6.1l-0.6,0.6L157.1,255L157.1,255z"
		/>
	<path id="XMLID_17_" class="st1" d="M166.2,249.9c0-2.5,0.4-4.7,1.3-6.8c0.9-2.1,2.2-4,3.8-5.6c1.6-1.6,3.5-2.9,5.6-3.8
		c2.1-0.9,4.4-1.4,6.8-1.4c2.5,0,4.7,0.5,6.8,1.4c2.1,0.9,4,2.1,5.6,3.8c1.6,1.6,2.9,3.4,3.8,5.6c0.9,2.1,1.4,4.4,1.4,6.8v17.6h-7
		v-17.6c0-1.5-0.3-2.8-0.9-4.1c-0.5-1.3-1.3-2.4-2.3-3.4c-0.9-1-2.1-1.7-3.4-2.3c-1.3-0.6-2.7-0.9-4.1-0.9c-1.5,0-2.8,0.3-4.2,0.9
		c-1.3,0.5-2.4,1.3-3.4,2.3c-0.9,0.9-1.7,2.1-2.3,3.4c-0.5,1.3-0.8,2.6-0.8,4.1v17.6h-7L166.2,249.9L166.2,249.9z"/>
	<path id="XMLID_18_" class="st1" d="M166.2,249.9h0.8c0-2.4,0.4-4.5,1.3-6.5l-0.7-0.3l0.7,0.3c0.9-2.1,2.1-3.8,3.6-5.3
		c1.5-1.5,3.3-2.7,5.4-3.6l0,0l0,0c2-0.9,4.2-1.3,6.5-1.3c2.4,0,4.5,0.4,6.5,1.3l0,0l0,0c2,0.9,3.8,2,5.4,3.6l0,0l0,0
		c1.5,1.5,2.7,3.2,3.6,5.3l0,0l0,0c0.9,2,1.3,4.1,1.3,6.5v16.8h-5.4l0-16.8c0-1.6-0.3-3-0.9-4.4l-0.7,0.3l0.7-0.3
		c-0.6-1.4-1.4-2.6-2.5-3.7l-0.5,0.6l0.6-0.5c-1-1.1-2.2-1.9-3.7-2.5l-0.3,0.7l0.3-0.7c-1.4-0.6-2.9-0.9-4.5-0.9
		c-1.6,0-3.1,0.3-4.5,0.9l0.3,0.7l-0.3-0.7c-1.3,0.6-2.6,1.4-3.6,2.4c-1,1-1.8,2.2-2.4,3.6l0,0l0,0c-0.6,1.4-0.8,2.8-0.8,4.4v16.8
		H167v-16.8h-1.6v18.4h8.6v-18.4c0-1.4,0.2-2.6,0.7-3.8l-0.7-0.3l0.7,0.3c0.5-1.2,1.2-2.3,2.1-3.1c0.9-0.9,2-1.6,3.1-2.1l0,0
		c1.2-0.5,2.5-0.8,3.8-0.8c1.4,0,2.6,0.3,3.8,0.8l0,0l0,0c1.2,0.5,2.2,1.2,3.1,2.1l0,0l0,0c0.9,0.9,1.6,1.9,2.1,3.1l0,0l0,0
		c0.5,1.1,0.8,2.4,0.8,3.7v18.4h8.6v-18.4c0-2.6-0.5-4.9-1.5-7.1l-0.7,0.3l0.7-0.3c-0.9-2.2-2.2-4.2-3.9-5.8l-0.6,0.6l0.6-0.6
		c-1.7-1.7-3.7-3-5.9-3.9l-0.3,0.7l0.3-0.7c-2.2-1-4.6-1.5-7.1-1.5c-2.5,0-4.9,0.5-7.1,1.5l0.3,0.7l-0.3-0.7
		c-2.2,0.9-4.2,2.2-5.9,3.9c-1.6,1.6-2.9,3.6-3.9,5.8l0,0c-0.9,2.2-1.4,4.6-1.4,7.1L166.2,249.9L166.2,249.9z"/>
	<path id="XMLID_19_" class="st1" d="M210.7,237.5c1.7-1.7,3.7-3,5.8-3.8c2.2-0.9,4.4-1.3,6.7-1.3c2.2,0,4.4,0.4,6.6,1.3
		c2.2,0.8,4.1,2.1,5.9,3.8l2.4,2.4l-4.9,4.9l-2.5-2.4c-1-1-2.2-1.8-3.5-2.3c-1.3-0.5-2.6-0.8-4-0.8c-1.4,0-2.7,0.3-4,0.8
		c-1.3,0.5-2.5,1.3-3.5,2.3c-1,1-1.8,2.1-2.3,3.4c-0.5,1.3-0.8,2.6-0.8,4c0,1.4,0.3,2.7,0.8,4c0.5,1.3,1.3,2.5,2.3,3.5
		c2.1,2.1,4.6,3.1,7.5,3.1c1.4,0,2.8-0.3,4.1-0.8c1.3-0.5,2.5-1.3,3.4-2.3l2.5-2.4l4.9,4.9l-2.4,2.4c-1.7,1.7-3.7,3-5.9,3.9
		c-2.1,0.8-4.3,1.3-6.6,1.3c-2.2,0-4.5-0.4-6.7-1.3c-2.1-0.9-4.1-2.2-5.8-3.9c-1.7-1.7-3-3.7-3.8-5.8c-0.8-2.1-1.3-4.3-1.3-6.6
		c0-2.3,0.4-4.5,1.3-6.7C207.7,241.2,208.9,239.3,210.7,237.5"/>
	<path id="XMLID_20_" class="st1" d="M210.7,237.5l0.6,0.6c1.7-1.7,3.5-2.9,5.5-3.7l0,0c2.1-0.9,4.2-1.3,6.4-1.3
		c2.1,0,4.2,0.4,6.3,1.3l0,0l0,0c2.1,0.8,3.9,2,5.6,3.7l1.9,1.9l-3.7,3.8l-1.9-1.9l-0.6,0.6l0.6-0.6c-1.1-1.1-2.4-2-3.8-2.5
		c-1.4-0.6-2.8-0.8-4.3-0.8c-1.5,0-2.9,0.3-4.3,0.8c-1.4,0.6-2.7,1.4-3.8,2.5l0.6,0.6l-0.6-0.6c-1.1,1.1-2,2.3-2.5,3.7
		c-0.6,1.4-0.8,2.8-0.8,4.3s0.3,2.9,0.8,4.3c0.6,1.4,1.4,2.7,2.5,3.8c2.2,2.2,5,3.4,8.1,3.4c1.5,0,3-0.3,4.4-0.8
		c1.4-0.6,2.7-1.4,3.7-2.5l-0.6-0.5l0.6,0.6l1.9-1.9l3.7,3.8l-1.9,1.9c-1.6,1.6-3.5,2.9-5.6,3.7l0.3,0.7l-0.3-0.7
		c-2.1,0.8-4.1,1.2-6.3,1.2c-2.1,0-4.3-0.4-6.4-1.2l-0.3,0.7l0.3-0.7c-2-0.8-3.9-2.1-5.5-3.7c-1.7-1.7-2.9-3.5-3.7-5.5
		c-0.8-2.1-1.2-4.1-1.2-6.3c0-2.2,0.4-4.3,1.2-6.4c0.8-2,2-3.9,3.7-5.5L210.7,237.5l-0.6-0.6c-1.8,1.8-3.1,3.8-4,6.1
		c-0.9,2.2-1.3,4.6-1.3,6.9c0,2.3,0.4,4.6,1.3,6.9c0.9,2.2,2.2,4.3,4,6.1c1.8,1.8,3.8,3.2,6.1,4.1l0,0l0,0c2.3,0.9,4.6,1.3,6.9,1.3
		c2.3,0,4.6-0.4,6.9-1.3l0,0c2.3-0.9,4.3-2.3,6.1-4.1l3-3l-6-6.1l-3.1,3l0,0c-0.9,1-2,1.7-3.2,2.2c-1.2,0.5-2.5,0.7-3.8,0.7
		c-2.7,0-5-0.9-7-2.9c-1-1-1.7-2.1-2.2-3.3c-0.5-1.2-0.7-2.4-0.7-3.7c0-1.3,0.2-2.5,0.7-3.7c0.5-1.2,1.2-2.2,2.2-3.2l0,0l0,0
		c1-1,2.1-1.7,3.3-2.2c1.2-0.5,2.4-0.7,3.7-0.7c1.3,0,2.5,0.2,3.7,0.7c1.2,0.5,2.3,1.2,3.3,2.2l3.1,3l6-6.1l-3-3
		c-1.8-1.8-3.9-3.1-6.2-4l-0.3,0.7l0.3-0.7c-2.2-0.9-4.5-1.4-6.9-1.4c-2.4,0-4.7,0.5-7,1.4l0.3,0.7l-0.3-0.7c-2.2,0.9-4.3,2.2-6.1,4
		L210.7,237.5L210.7,237.5z"/>
	<path id="XMLID_21_" class="st1" d="M249.1,249.9c0,1.5,0.3,2.9,0.8,4.2c0.6,1.3,1.3,2.5,2.3,3.4c1,0.9,2.1,1.7,3.4,2.3
		c1.3,0.5,2.7,0.8,4.2,0.8c1.5,0,2.8-0.3,4.1-0.8c1.3-0.6,2.4-1.3,3.4-2.3c1-1,1.7-2.1,2.3-3.4c0.6-1.3,0.9-2.7,0.9-4.2
		c0-1.5-0.3-2.8-0.9-4.1c-0.5-1.3-1.3-2.4-2.3-3.4c-0.9-1-2.1-1.8-3.4-2.3c-1.3-0.6-2.7-0.9-4.1-0.9c-1.5,0-2.9,0.3-4.2,0.9
		c-1.3,0.5-2.5,1.3-3.4,2.3c-0.9,0.9-1.7,2.1-2.3,3.4C249.4,247.1,249.1,248.4,249.1,249.9 M242.2,249.9c0-2.4,0.4-4.7,1.3-6.8
		c0.9-2.1,2.2-4,3.8-5.6c1.6-1.6,3.5-2.9,5.6-3.8c2.1-0.9,4.4-1.4,6.8-1.4c2.4,0,4.7,0.5,6.8,1.4c2.1,0.9,4,2.1,5.6,3.8
		c1.6,1.6,2.9,3.4,3.8,5.6c0.9,2.1,1.4,4.4,1.4,6.8c0,2.4-0.5,4.7-1.4,6.8c-0.9,2.1-2.1,4-3.8,5.6c-1.6,1.6-3.5,2.9-5.6,3.8
		c-2.1,0.9-4.4,1.3-6.8,1.3c-2.4,0-4.7-0.4-6.8-1.3c-2.1-0.9-4-2.2-5.6-3.8c-1.6-1.6-2.8-3.5-3.8-5.6
		C242.7,254.6,242.2,252.3,242.2,249.9"/>
	<path id="XMLID_24_" class="st1" d="M249.1,249.9h-0.8c0,1.6,0.3,3.1,0.8,4.5l0,0l0,0c0.6,1.4,1.4,2.6,2.4,3.7l0,0l0,0
		c1.1,1,2.3,1.8,3.7,2.4l0,0l0,0c1.4,0.6,2.9,0.8,4.5,0.8c1.6,0,3-0.3,4.4-0.8l0,0l0,0c1.4-0.6,2.6-1.4,3.6-2.4
		c1.1-1.1,1.9-2.3,2.4-3.7l-0.7-0.3l0.7,0.3c0.6-1.4,0.9-2.9,0.9-4.5c0-1.6-0.3-3-0.9-4.4l-0.7,0.3l0.7-0.3
		c-0.6-1.4-1.4-2.6-2.5-3.6l-0.5,0.6l0.6-0.5c-1-1.1-2.2-1.9-3.7-2.5l-0.3,0.7l0.3-0.7c-1.4-0.6-2.9-0.9-4.5-0.9
		c-1.6,0-3.1,0.3-4.5,0.9l0.3,0.7l-0.3-0.7c-1.4,0.6-2.6,1.4-3.7,2.4l0,0c-1,1-1.8,2.2-2.4,3.6l0,0l0,0c-0.6,1.4-0.8,2.8-0.8,4.4
		h1.6c0-1.4,0.2-2.6,0.7-3.8l-0.7-0.3l0.7,0.3c0.5-1.2,1.2-2.3,2.1-3.1l0,0c0.9-0.9,2-1.6,3.2-2.1l0,0l0,0c1.2-0.5,2.5-0.8,3.8-0.8
		c1.4,0,2.6,0.3,3.8,0.8l0,0l0,0c1.2,0.5,2.2,1.2,3.1,2.1l0,0l0,0c0.9,0.9,1.6,1.9,2.1,3.1l0,0l0,0c0.5,1.1,0.8,2.4,0.8,3.7
		c0,1.4-0.3,2.6-0.8,3.8l0,0l0,0c-0.5,1.2-1.2,2.3-2.1,3.2c-0.9,0.9-1.9,1.6-3.1,2.1l0.3,0.7l-0.3-0.7c-1.2,0.5-2.5,0.7-3.8,0.7
		c-1.4,0-2.6-0.2-3.9-0.7l-0.3,0.7l0.3-0.7c-1.2-0.5-2.3-1.2-3.2-2.1l-0.5,0.6l0.6-0.6c-0.9-0.9-1.6-2-2.1-3.2l-0.7,0.3l0.7-0.3
		c-0.5-1.2-0.7-2.5-0.7-3.9L249.1,249.9L249.1,249.9z M242.2,249.9h0.8c0-2.4,0.4-4.5,1.3-6.5l-0.7-0.3l0.7,0.3
		c0.9-2.1,2.1-3.8,3.6-5.3c1.5-1.5,3.3-2.7,5.4-3.6l0,0l0,0c2-0.9,4.2-1.3,6.5-1.3c2.3,0,4.5,0.4,6.5,1.3l0,0l0,0
		c2,0.8,3.8,2,5.4,3.6l0,0l0,0c1.5,1.5,2.7,3.2,3.6,5.3l0,0l0,0c0.9,2,1.3,4.1,1.3,6.5c0,2.3-0.4,4.5-1.3,6.5l0,0l0,0
		c-0.9,2-2,3.8-3.6,5.4c-1.5,1.5-3.3,2.8-5.4,3.7l0.3,0.7l-0.3-0.7c-2,0.8-4.1,1.3-6.5,1.3c-2.3,0-4.5-0.4-6.5-1.3l-0.3,0.7l0.3-0.7
		c-2.1-0.9-3.8-2.1-5.4-3.7l-0.6,0.6l0.6-0.6c-1.5-1.6-2.7-3.3-3.6-5.4l-0.7,0.3l0.7-0.3c-0.8-2-1.3-4.2-1.3-6.5h-1.6
		c0,2.5,0.5,4.9,1.4,7.1l0,0c1,2.2,2.3,4.2,3.9,5.9l0,0l0,0c1.7,1.7,3.7,3,5.9,4l0,0l0,0c2.2,0.9,4.6,1.4,7.1,1.4
		c2.5,0,4.9-0.5,7.1-1.4l0,0c2.2-1,4.2-2.3,5.9-4c1.7-1.7,3-3.7,3.9-5.9l-0.7-0.3l0.7,0.3c1-2.2,1.5-4.6,1.5-7.1
		c0-2.5-0.5-4.9-1.5-7.1l-0.7,0.3l0.7-0.3c-0.9-2.2-2.2-4.2-3.9-5.8l-0.6,0.6l0.6-0.6c-1.7-1.7-3.7-3-5.9-3.9l-0.3,0.7l0.3-0.7
		c-2.2-1-4.6-1.5-7.1-1.5c-2.5,0-4.9,0.5-7.1,1.5l0.3,0.7l-0.3-0.7c-2.2,0.9-4.2,2.2-5.9,3.9c-1.6,1.6-2.9,3.6-3.9,5.8l0,0l0,0
		c-0.9,2.2-1.4,4.6-1.4,7.1L242.2,249.9L242.2,249.9z"/>
	<path id="XMLID_27_" class="st1" d="M313.3,232.4v7h-21.2c-1,0-1.8,0.3-2.5,1c-0.7,0.7-1,1.5-1,2.5c0,1,0.3,1.9,1,2.6
		c0.7,0.7,1.5,1,2.5,1h14.1c1.5,0,2.8,0.3,4.1,0.9c1.3,0.5,2.4,1.3,3.4,2.2c1,0.9,1.7,2.1,2.3,3.4c0.6,1.3,0.9,2.6,0.9,4.1
		c0,1.5-0.3,2.8-0.9,4.2c-0.5,1.3-1.3,2.4-2.3,3.4c-0.9,0.9-2.1,1.7-3.4,2.3c-1.2,0.5-2.6,0.8-4.1,0.8H285v-7h21.1
		c1,0,1.9-0.3,2.6-1c0.7-0.7,1-1.5,1-2.6c0-1-0.3-1.8-1-2.5c-0.7-0.7-1.5-1-2.6-1h-14.1c-1.5,0-2.8-0.3-4.2-0.8
		c-1.2-0.6-2.3-1.3-3.3-2.3c-0.9-1-1.7-2.1-2.3-3.4c-0.5-1.3-0.8-2.7-0.8-4.1c0-1.5,0.3-2.8,0.8-4.1c0.6-1.3,1.3-2.4,2.3-3.4
		c0.9-0.9,2-1.7,3.3-2.2c1.3-0.6,2.7-0.9,4.2-0.9H313.3L313.3,232.4z"/>
	<path id="XMLID_28_" class="st1" d="M313.3,232.4h-0.8v6.2h-20.4c-1.2,0-2.3,0.4-3.1,1.3c-0.8,0.8-1.3,1.9-1.3,3.1
		c0,1.2,0.4,2.3,1.2,3.1l0,0l0,0c0.8,0.8,1.9,1.3,3.1,1.3h14.1c1.4,0,2.6,0.3,3.7,0.8l0,0l0,0c1.2,0.5,2.2,1.2,3.1,2l0,0l0,0
		c0.9,0.9,1.6,1.9,2.1,3.1l0,0l0,0c0.5,1.1,0.8,2.4,0.8,3.7c0,1.4-0.3,2.6-0.8,3.8l0,0l0,0c-0.5,1.2-1.2,2.2-2.1,3.1
		c-0.9,0.9-1.9,1.6-3.1,2.1l0.3,0.7l-0.3-0.7c-1.1,0.5-2.4,0.7-3.8,0.7h-20.3v-5.4h20.3c1.2,0,2.3-0.4,3.1-1.3
		c0.8-0.8,1.3-1.9,1.3-3.1c0-1.2-0.4-2.3-1.3-3.1c-0.8-0.8-1.9-1.3-3.1-1.3h-14.1c-1.4,0-2.6-0.2-3.9-0.7l-0.3,0.7l0.3-0.7
		c-1.2-0.5-2.2-1.2-3.1-2.1l-0.6,0.6l0.6-0.5c-0.9-0.9-1.6-2-2.1-3.2l-0.7,0.3l0.7-0.3c-0.5-1.2-0.7-2.5-0.7-3.9
		c0-1.4,0.2-2.6,0.7-3.8l-0.7-0.3l0.7,0.3c0.5-1.2,1.2-2.3,2.1-3.1c0.9-0.9,1.9-1.5,3-2l0,0c1.2-0.5,2.5-0.8,3.8-0.8h21.2
		L313.3,232.4l-0.8,0L313.3,232.4l0-0.8h-21.2c-1.6,0-3.1,0.3-4.5,0.9l0.3,0.7l-0.3-0.7c-1.3,0.6-2.5,1.4-3.5,2.4
		c-1,1-1.8,2.2-2.4,3.6l0,0l0,0c-0.6,1.4-0.8,2.8-0.8,4.4c0,1.6,0.3,3,0.8,4.4l0,0l0,0c0.6,1.3,1.4,2.5,2.4,3.6l0,0l0,0
		c1,1,2.2,1.8,3.5,2.4l0,0l0,0c1.4,0.6,2.9,0.8,4.4,0.8h14.1c0.9,0,1.5,0.3,2,0.8c0.5,0.5,0.8,1.1,0.8,1.9c0,0.9-0.3,1.5-0.8,2
		c-0.5,0.5-1.1,0.8-2,0.8h-21.9v8.6h21.9c1.6,0,3-0.3,4.4-0.8l0,0l0,0c1.4-0.6,2.6-1.4,3.6-2.4c1.1-1.1,1.9-2.3,2.4-3.6l-0.7-0.3
		l0.7,0.3c0.6-1.4,0.9-2.9,0.9-4.5c0-1.6-0.3-3-0.9-4.4l-0.7,0.3l0.7-0.3c-0.6-1.4-1.4-2.6-2.5-3.6l-0.5,0.6l0.6-0.6
		c-1-1-2.2-1.8-3.6-2.4l-0.3,0.7l0.3-0.7c-1.4-0.6-2.8-0.9-4.4-0.9h-14.1c-0.8,0-1.4-0.2-1.9-0.8l-0.6,0.6l0.6-0.5
		c-0.6-0.6-0.8-1.2-0.8-2c0-0.8,0.2-1.4,0.8-1.9c0.5-0.5,1.1-0.8,1.9-0.8h22v-8.6h-0.8L313.3,232.4L313.3,232.4z"/>
	<path id="XMLID_29_" class="st1" d="M356.1,232.4v17.5c0,2.4-0.5,4.7-1.4,6.8c-0.9,2.1-2.1,4-3.8,5.6c-1.6,1.6-3.5,2.9-5.6,3.8
		c-2.1,0.9-4.4,1.3-6.8,1.3c-2.4,0-4.7-0.4-6.8-1.3c-2.1-0.9-4-2.2-5.6-3.8c-1.6-1.6-2.8-3.5-3.8-5.6c-0.9-2.1-1.3-4.4-1.3-6.8
		v-17.5h7v17.5c0,1.5,0.3,2.8,0.8,4.2c0.6,1.3,1.3,2.4,2.3,3.4c1,0.9,2.1,1.7,3.4,2.3c1.3,0.5,2.7,0.8,4.1,0.8
		c1.5,0,2.8-0.3,4.1-0.8c1.3-0.6,2.4-1.3,3.4-2.3c1-1,1.7-2.1,2.3-3.4c0.6-1.3,0.9-2.7,0.9-4.2v-17.5H356.1L356.1,232.4z"/>
	<path id="XMLID_30_" class="st1" d="M356.1,232.4h-0.8v17.5c0,2.3-0.4,4.5-1.3,6.5l0,0l0,0c-0.8,2-2,3.8-3.6,5.4
		c-1.5,1.5-3.3,2.8-5.4,3.7l0.3,0.7l-0.3-0.7c-2,0.8-4.1,1.3-6.5,1.3c-2.3,0-4.5-0.4-6.5-1.3l-0.3,0.7l0.3-0.7
		c-2.1-0.9-3.8-2.1-5.4-3.7l-0.6,0.6l0.6-0.6c-1.5-1.6-2.7-3.3-3.6-5.4l-0.7,0.3l0.7-0.3c-0.8-2-1.3-4.2-1.3-6.5v-16.7h5.4v16.7
		c0,1.6,0.3,3.1,0.8,4.4l0,0l0,0c0.6,1.4,1.4,2.6,2.4,3.7l0,0l0,0c1.1,1,2.2,1.8,3.6,2.4l0,0l0,0c1.4,0.6,2.9,0.8,4.4,0.8
		c1.6,0,3-0.3,4.4-0.8l0,0l0,0c1.4-0.6,2.6-1.4,3.6-2.4c1.1-1.1,1.9-2.3,2.4-3.7l-0.7-0.3l0.7,0.3c0.6-1.4,0.9-2.9,0.9-4.5v-16.7
		h6.2L356.1,232.4l-0.8,0L356.1,232.4l0-0.8h-7.8v18.3c0,1.4-0.3,2.6-0.8,3.8l0,0l0,0c-0.5,1.2-1.2,2.3-2.1,3.2
		c-0.9,0.9-1.9,1.6-3.1,2.1l0.3,0.7l-0.3-0.7c-1.2,0.5-2.5,0.7-3.9,0.7c-1.4,0-2.6-0.2-3.9-0.7l-0.3,0.7l0.3-0.7
		c-1.2-0.5-2.2-1.2-3.2-2.1l-0.6,0.6l0.6-0.5c-0.9-0.9-1.6-2-2.1-3.2l-0.7,0.3l0.7-0.3c-0.5-1.2-0.7-2.5-0.7-3.9v-18.3h-8.6v18.3
		c0,2.5,0.5,4.9,1.4,7.1l0,0l0,0c1,2.2,2.3,4.2,3.9,5.9l0,0l0,0c1.7,1.7,3.7,3,5.9,4l0,0l0,0c2.2,0.9,4.6,1.4,7.1,1.4
		c2.6,0,4.9-0.5,7.1-1.4l0,0c2.2-1,4.2-2.3,5.9-4c1.7-1.7,3-3.7,3.9-5.9l-0.7-0.3l0.7,0.3c1-2.2,1.5-4.6,1.5-7.1v-18.3h-0.8
		L356.1,232.4L356.1,232.4z"/>
	<path id="XMLID_31_" class="st1" d="M378,260.6c1.5,0,2.8-0.3,4.1-0.8c1.3-0.6,2.4-1.3,3.4-2.3c1-1,1.8-2.1,2.3-3.4
		c0.6-1.3,0.9-2.7,0.9-4.2v-10.6H378c-1.5,0-2.8,0.3-4.1,0.9c-1.3,0.5-2.5,1.3-3.4,2.3c-0.9,0.9-1.7,2.1-2.3,3.4
		c-0.5,1.3-0.8,2.6-0.8,4.1c0,1.5,0.3,2.8,0.8,4.2c0.6,1.3,1.3,2.5,2.3,3.4c1,0.9,2.1,1.7,3.4,2.3
		C375.1,260.3,376.5,260.6,378,260.6 M395.5,218.3v31.6c0,2.4-0.5,4.7-1.4,6.8c-0.9,2.1-2.1,4-3.8,5.6c-1.6,1.6-3.4,2.9-5.6,3.8
		c-2.1,0.9-4.4,1.3-6.8,1.3c-2.4,0-4.7-0.4-6.8-1.3c-2.1-0.9-4-2.2-5.6-3.8c-1.6-1.6-2.9-3.5-3.8-5.6c-0.9-2.1-1.3-4.4-1.3-6.8
		c0-2.5,0.4-4.7,1.3-6.8c0.9-2.1,2.2-4,3.8-5.6c1.6-1.6,3.5-2.9,5.6-3.8c2.1-0.9,4.4-1.4,6.8-1.4h10.6v-14.1L395.5,218.3
		L395.5,218.3z"/>
	<path id="XMLID_34_" class="st1" d="M378,260.6v0.8c1.6,0,3-0.3,4.4-0.8l0,0c1.4-0.6,2.6-1.4,3.6-2.4c1.1-1.1,1.9-2.3,2.4-3.7
		l-0.7-0.3l0.7,0.3c0.6-1.4,0.9-2.9,0.9-4.5v-11.4H378c-1.6,0-3.1,0.3-4.5,0.9l0.3,0.7l-0.3-0.7c-1.4,0.6-2.6,1.4-3.7,2.4
		c-1,1-1.8,2.2-2.4,3.6l0,0c-0.6,1.4-0.8,2.8-0.8,4.4c0,1.6,0.3,3.1,0.8,4.5l0,0l0,0c0.6,1.4,1.4,2.6,2.4,3.7l0,0l0,0
		c1.1,1,2.3,1.8,3.7,2.4l0,0l0,0c1.4,0.6,2.9,0.8,4.4,0.8v-1.6c-1.4,0-2.6-0.2-3.9-0.7l-0.3,0.7l0.3-0.7c-1.2-0.5-2.3-1.2-3.2-2.1
		l-0.5,0.6l0.6-0.6c-0.9-0.9-1.6-2-2.1-3.2l-0.7,0.3l0.7-0.3c-0.5-1.2-0.7-2.5-0.7-3.9c0-1.4,0.2-2.6,0.7-3.8l-0.7-0.3l0.7,0.3
		c0.5-1.2,1.2-2.3,2.1-3.1c0.9-0.9,2-1.6,3.2-2.1l0,0l0,0c1.2-0.5,2.5-0.8,3.8-0.8h9.8v9.8c0,1.4-0.3,2.6-0.8,3.8l0,0l0,0
		c-0.5,1.2-1.2,2.3-2.1,3.2c-0.9,0.9-1.9,1.6-3.1,2.1l0.3,0.7l-0.3-0.7c-1.2,0.5-2.4,0.7-3.8,0.7L378,260.6L378,260.6z M395.5,218.3
		h-0.8v31.6c0,2.3-0.4,4.5-1.3,6.5l0,0c-0.8,2-2,3.8-3.6,5.4l0,0l0,0c-1.5,1.5-3.3,2.8-5.3,3.7l0.3,0.7l-0.3-0.7
		c-2,0.8-4.2,1.3-6.5,1.3c-2.3,0-4.5-0.4-6.5-1.3l-0.3,0.7l0.3-0.7c-2.1-0.9-3.8-2.1-5.4-3.7c-1.5-1.5-2.8-3.3-3.7-5.4l-0.7,0.3
		l0.7-0.3c-0.8-2-1.3-4.2-1.3-6.5c0-2.4,0.4-4.5,1.3-6.5l-0.7-0.3l0.7,0.3c0.9-2.1,2.1-3.8,3.7-5.3l0,0c1.5-1.5,3.3-2.7,5.4-3.6l0,0
		c2-0.9,4.2-1.3,6.5-1.3h11.4v-14.1h6.2V218.3l-0.8,0L395.5,218.3l0-0.8h-7.8v14.1h-9.8c-2.5,0-4.9,0.5-7.1,1.5l0.3,0.7l-0.3-0.7
		c-2.2,0.9-4.2,2.2-5.9,3.9l0.6,0.6l-0.6-0.6c-1.7,1.6-3,3.6-4,5.8l0,0l0,0c-0.9,2.2-1.4,4.6-1.4,7.1c0,2.5,0.5,4.9,1.4,7.1l0,0l0,0
		c1,2.2,2.3,4.2,4,5.9c1.7,1.7,3.7,3,5.9,4l0,0l0,0c2.2,0.9,4.6,1.4,7.1,1.4c2.5,0,4.9-0.5,7.1-1.4l0,0c2.2-1,4.2-2.3,5.8-4
		l-0.6-0.6l0.6,0.6c1.7-1.7,3-3.7,3.9-5.9l-0.7-0.3l0.7,0.3c1-2.2,1.5-4.6,1.5-7.1v-32.4h-0.8L395.5,218.3L395.5,218.3z"/>
</g>
</svg>
